<?xml version="1.0" encoding="UTF-8"?><svg id="Layer_2" xmlns="http://www.w3.org/2000/svg" viewBox="0 0 417.31 130.07"><defs><style>.cls-1{fill:#fff;}.cls-2{fill:#deff00;}</style></defs><g id="Layer_2-2"><path class="cls-2" d="m23.29,5.09v35.6h38.01V5.09h23.29v95.02h-23.29v-38.81H23.29v38.81H0V5.09h23.29Z"/><path class="cls-2" d="m97.03,64.24c0-20.34,14.72-37.47,36-37.47,22.35,0,35.6,16.33,35.6,38.54v4.82h-49.25c1.61,7.76,6.16,13.65,14.59,13.65,5.89,0,9.77-2.28,13.38-6.96l19.94,5.22c-5.62,13.25-19.67,20.07-33.59,20.07-21.68,0-36.67-15.93-36.67-37.87Zm22.35-8.03h26.77c-1.2-7.36-5.09-13.12-13.12-13.12s-12.18,5.75-13.65,13.12Z"/><path class="cls-2" d="m205.31,56.88c5.49,0,9.77.8,14.86,2.81v-3.61c0-6.96-4.02-11.51-11.11-11.51-4.68,0-9.23,2.14-11.11,6.69l-19.54-3.35c2.94-13.79,17.8-21.15,31.05-21.15,17.93,0,31.85,11.38,31.85,30.38v42.96h-19.54l-.54-8.43c-4.01,7.23-12.58,10.44-20.48,10.44-12.98,0-24.89-8.16-24.89-22.22,0-16.06,15.12-23.02,29.44-23.02Zm1.47,29.04c7.23,0,13.38-4.68,13.38-12.31v-.67c-3.88-1.61-6.56-2.27-10.84-2.27-4.95,0-12.04,1.61-12.04,7.9,0,5.09,5.09,7.36,9.5,7.36Z"/><path class="cls-2" d="m254.96,0h21.81v100.11h-21.81V0Z"/><path class="cls-2" d="m297.93,28.77V4.42h21.82v24.36h18.33v17.8h-18.33v27.17c0,5.49,2.14,9.64,8.16,9.64,2.94,0,6.69-1.07,9.37-2.28l3.35,16.6c-5.76,3.08-11.24,4.42-17.67,4.42-16.33,0-25.03-9.64-25.03-25.7v-29.84h-11.78v-17.8h11.78Z"/><path class="cls-2" d="m350.53,0h21.81v36.54c4.55-6.56,11.78-9.77,19.67-9.77,17.27,0,25.29,14.19,25.29,30.25v43.09h-21.81v-40.02c0-4.15-.94-7.5-2.81-10.04-2.01-2.41-4.68-3.61-8.03-3.61-7.36,0-12.31,6.02-12.31,13.25v40.42h-21.81V0Z"/><path class="cls-1" d="m258.2,115.19c0,.51-.09,1.05-.27,1.63-.18.58-.47,1.13-.86,1.63-.4.5-.92.92-1.56,1.25s-1.42.51-2.33.51h-6.57v-3.46h6.57c.5,0,.88-.15,1.15-.46.27-.3.41-.68.41-1.13,0-.48-.15-.85-.46-1.12-.3-.27-.67-.41-1.1-.41h-6.57c-.5,0-.88.15-1.15.46-.27.3-.41.68-.41,1.13v5.09c0,.49.15.86.46,1.14.3.27.68.41,1.13.41h6.55v3.48h-6.57c-.51,0-1.05-.09-1.63-.27-.58-.18-1.13-.46-1.63-.86-.5-.4-.92-.92-1.25-1.56-.34-.64-.51-1.42-.51-2.33v-5.12c0-.5.09-1.05.27-1.63.18-.58.46-1.13.86-1.63.4-.5.92-.92,1.56-1.25s1.42-.51,2.33-.51h6.57c.51,0,1.05.09,1.63.27.58.18,1.13.47,1.63.86.5.4.92.92,1.25,1.56.34.64.51,1.42.51,2.33Z"/><path class="cls-2" d="m270.24,112.4l6.14-7.18h4.98l-8.65,10.08,8.59,10.02h-4.95l-6.11-7.12-6.08,7.12h-4.96l8.58-10.02-8.61-10.08h4.93l6.14,7.18Z"/><path class="cls-1" d="m299.96,120.21c0,.63-.08,1.19-.24,1.69s-.37.94-.63,1.32c-.26.38-.57.7-.91.97s-.71.48-1.09.65c-.38.17-.76.29-1.14.37-.38.08-.75.12-1.09.12h-6.57v-3.64h6.57c.49,0,.85-.13,1.09-.38.24-.25.36-.62.36-1.09v-4.91c0-.51-.12-.88-.37-1.12s-.61-.36-1.09-.36h-6.55c-.5,0-.87.12-1.12.37s-.38.61-.38,1.09v14.79h-3.64v-14.79c0-.63.08-1.19.24-1.68s.37-.93.64-1.31c.27-.38.57-.7.92-.97.35-.27.71-.48,1.09-.65s.76-.29,1.15-.37c.39-.08.75-.12,1.09-.12h6.57c.63,0,1.19.08,1.68.24.5.16.93.37,1.31.63.38.26.7.56.97.91.27.35.48.71.65,1.09.17.38.29.76.37,1.14s.12.75.12,1.09v4.93Z"/><path class="cls-1" d="m319.38,115.19c0,.51-.09,1.05-.27,1.63-.18.58-.47,1.13-.86,1.63-.4.5-.92.92-1.56,1.25s-1.42.51-2.33.51h-6.57v-3.46h6.57c.5,0,.88-.15,1.15-.46.27-.3.41-.68.41-1.13,0-.48-.15-.85-.46-1.12-.3-.27-.67-.41-1.1-.41h-6.57c-.5,0-.88.15-1.15.46-.27.3-.41.68-.41,1.13v5.09c0,.49.15.86.46,1.14.3.27.68.41,1.13.41h6.55v3.48h-6.57c-.51,0-1.05-.09-1.63-.27-.58-.18-1.13-.46-1.63-.86-.5-.4-.92-.92-1.25-1.56-.34-.64-.51-1.42-.51-2.33v-5.12c0-.5.09-1.05.27-1.63.18-.58.46-1.13.86-1.63.4-.5.92-.92,1.56-1.25s1.42-.51,2.33-.51h6.57c.51,0,1.05.09,1.63.27.58.18,1.13.47,1.63.86.5.4.92.92,1.25,1.56.34.64.51,1.42.51,2.33Z"/><path class="cls-1" d="m335.09,113.82h-8.2c-.5,0-.87.12-1.12.37s-.38.61-.38,1.09v10.05h-3.64v-10.05c0-.63.08-1.19.24-1.68s.37-.93.64-1.31c.27-.38.57-.7.92-.97.35-.27.71-.48,1.09-.65s.76-.29,1.15-.37c.39-.08.75-.12,1.09-.12h8.23v3.64Z"/><path class="cls-1" d="m341.19,107.06h-3.64v-3.29h3.64v3.29Zm0,18.27h-3.64v-15.15h3.64v15.15Z"/><path class="cls-1" d="m360.98,115.19c0,.51-.09,1.05-.27,1.63-.18.58-.47,1.13-.86,1.63-.4.5-.92.92-1.56,1.25s-1.42.51-2.33.51h-6.57v-3.46h6.57c.5,0,.88-.15,1.15-.46.27-.3.41-.68.41-1.13,0-.48-.15-.85-.46-1.12-.3-.27-.67-.41-1.1-.41h-6.57c-.5,0-.88.15-1.15.46-.27.3-.41.68-.41,1.13v5.09c0,.49.15.86.46,1.14.3.27.68.41,1.13.41h6.55v3.48h-6.57c-.51,0-1.05-.09-1.63-.27-.58-.18-1.13-.46-1.63-.86-.5-.4-.92-.92-1.25-1.56-.34-.64-.51-1.42-.51-2.33v-5.12c0-.5.09-1.05.27-1.63.18-.58.46-1.13.86-1.63.4-.5.92-.92,1.56-1.25s1.42-.51,2.33-.51h6.57c.51,0,1.05.09,1.63.27.58.18,1.13.47,1.63.86.5.4.92.92,1.25,1.56.34.64.51,1.42.51,2.33Z"/><path class="cls-1" d="m380.23,125.33h-3.64v-8.41c0-.48-.08-.9-.24-1.28-.16-.38-.39-.7-.67-.97-.28-.27-.61-.48-.99-.62s-.79-.22-1.23-.22h-6.38v11.51h-3.64v-13.35c0-.25.05-.49.14-.71.09-.22.22-.41.39-.57.17-.16.36-.29.59-.39.22-.09.46-.14.71-.14h8.21c.46,0,.94.05,1.45.16.51.1,1.01.27,1.51.5.5.23.98.52,1.43.87.45.35.86.78,1.21,1.28.35.5.63,1.08.83,1.73s.31,1.39.31,2.21v8.41Z"/><path class="cls-1" d="m398.1,125.33h-9.88c-.5,0-1.06-.09-1.65-.27-.6-.18-1.15-.47-1.66-.88-.51-.41-.93-.93-1.28-1.58-.34-.65-.51-1.45-.51-2.39v-4.93c0-.35.04-.71.12-1.09s.2-.76.37-1.14c.17-.38.39-.74.65-1.09s.59-.65.97-.91.82-.47,1.31-.63,1.06-.24,1.68-.24h9.88v3.64h-9.88c-.48,0-.84.12-1.09.36s-.37.62-.37,1.12v4.91c0,.48.13.84.38,1.09s.62.38,1.11.38h9.86v3.64Z"/><path class="cls-1" d="m417.31,115.19c0,.51-.09,1.05-.27,1.63-.18.58-.47,1.13-.86,1.63-.4.5-.92.92-1.56,1.25s-1.42.51-2.33.51h-6.57v-3.46h6.57c.5,0,.88-.15,1.15-.46.27-.3.41-.68.41-1.13,0-.48-.15-.85-.46-1.12-.3-.27-.67-.41-1.1-.41h-6.57c-.5,0-.88.15-1.15.46-.27.3-.41.68-.41,1.13v5.09c0,.49.15.86.46,1.14.3.27.68.41,1.13.41h6.55v3.48h-6.57c-.51,0-1.05-.09-1.63-.27-.58-.18-1.13-.46-1.63-.86-.5-.4-.92-.92-1.25-1.56-.34-.64-.51-1.42-.51-2.33v-5.12c0-.5.09-1.05.27-1.63.18-.58.46-1.13.86-1.63.4-.5.92-.92,1.56-1.25s1.42-.51,2.33-.51h6.57c.51,0,1.05.09,1.63.27.58.18,1.13.47,1.63.86.5.4.92.92,1.25,1.56.34.64.51,1.42.51,2.33Z"/></g></svg>